<svg xmlns="http://www.w3.org/2000/svg" width="1440.005" height="498.996" viewBox="0 0 1440.005 498.996">
  <path id="Exclusion_1" data-name="Exclusion 1" d="M15736,20410c-36.6,0-76.653-1.316-119.048-3.91-38.539-2.357-79.9-5.826-122.921-10.309-72.417-7.543-150.849-18.066-233.115-31.279-73.181-11.754-135.87-23.5-175.573-31.277-42.226-8.277-68.248-13.977-69.335-14.215l-.01,0v-408h1440l0,408-.041.01c-2.77.607-28.256,6.162-69.3,14.209-39.708,7.781-102.4,19.525-175.574,31.277-82.263,13.213-160.694,23.736-233.114,31.279-43.025,4.482-84.382,7.951-122.921,10.309C15812.652,20408.68,15772.6,20410,15736,20410Z" transform="translate(-15015.997 -19911)" fill="#25bbb7"/>
</svg>
