
<svg xmlns="http://www.w3.org/2000/svg" xmlns:xlink="http://www.w3.org/1999/xlink" width="114.002" height="31.051" viewBox="0 0 114.002 31.051">
  <defs>
    <clipPath id="clip-path">
      <rect id="Rectangle_1" data-name="Rectangle 1" width="114.002" height="31.051" fill="none"/>
    </clipPath>
  </defs>
  <g id="Group_2" data-name="Group 2" transform="translate(0 -2)">
    <g id="Group_1" data-name="Group 1" transform="translate(0 2)" clip-path="url(#clip-path)">
      <path id="Path_1" data-name="Path 1" d="M209.481,142.195a3.972,3.972,0,0,0-1.264-.2,3.367,3.367,0,0,0-2.626,1.064,4.506,4.506,0,0,0-.965,3.125v7.98h-5.22V139.771l4.555-2.031.4,2.061a4.99,4.99,0,0,1,4.389-2.427,6.52,6.52,0,0,1,2.261.416A5.584,5.584,0,0,1,212.972,139" transform="translate(-179.334 -123.546)" fill="#272626"/>
      <path id="Path_2" data-name="Path 2" d="M366.389,141.006v16.425h-4.522l-.332-1.9a6.136,6.136,0,0,1-2.278,1.679,7.348,7.348,0,0,1-2.943.582,6.165,6.165,0,0,1-4.821-1.995,7.954,7.954,0,0,1-1.8-5.52v-7.245l5.22-2.031v8.977a3.673,3.673,0,0,0,.781,2.494,2.693,2.693,0,0,0,2.145.9,3.045,3.045,0,0,0,2.411-1.047,3.971,3.971,0,0,0,.914-2.71v-6.58Z" transform="translate(-314.498 -126.812)" fill="#272626"/>
      <path id="Path_3" data-name="Path 3" d="M542.6,151.808l2-3.591a9.969,9.969,0,0,0,2.776,1.131,12.784,12.784,0,0,0,3.142.4q2.161,0,2.161-1.164a.959.959,0,0,0-.6-.9,5.729,5.729,0,0,0-2-.4,8.851,8.851,0,0,1-4.971-1.563,4.374,4.374,0,0,1-1.845-3.658,4.579,4.579,0,0,1,1.995-3.907,9,9,0,0,1,5.386-1.446,14.216,14.216,0,0,1,3.674.465,10.263,10.263,0,0,1,3.009,1.3l-2.028,3.491a8.772,8.772,0,0,0-4.422-1.064q-2.527,0-2.527,1.2a.83.83,0,0,0,.515.765,5.374,5.374,0,0,0,1.746.4,10.529,10.529,0,0,1,5.37,1.6,4.328,4.328,0,0,1,1.845,3.724,4.618,4.618,0,0,1-2.028,3.973A9.539,9.539,0,0,1,550.185,154a13.147,13.147,0,0,1-7.581-2.194" transform="translate(-487.986 -122.952)" fill="#272626"/>
      <path id="Path_4" data-name="Path 4" d="M746.574,139.2a6.857,6.857,0,0,1,1.8,5.021v9.941h-5.22v-9.276a3.452,3.452,0,0,0-.682-2.278,2.357,2.357,0,0,0-1.912-.815,2.7,2.7,0,0,0-2.161.931,3.651,3.651,0,0,0-.8,2.461v8.977H732.41v-9.276a3.509,3.509,0,0,0-.665-2.278,2.308,2.308,0,0,0-1.9-.815,2.751,2.751,0,0,0-2.178.931,3.6,3.6,0,0,0-.815,2.461v8.977h-5.22V139.77l4.522-2.031.3,1.829a5.815,5.815,0,0,1,2.078-1.629,6.11,6.11,0,0,1,2.61-.565,5.929,5.929,0,0,1,2.86.682,5.173,5.173,0,0,1,2,1.879,6.747,6.747,0,0,1,5.652-2.56,6.583,6.583,0,0,1,4.921,1.829" transform="translate(-648.998 -123.545)" fill="#272626"/>
      <path id="Path_5" data-name="Path 5" d="M1024.205,143.037l2.61-1.016,2.61-1.016v16.425h-5.22Z" transform="translate(-921.11 -126.812)" fill="#272626"/>
      <path id="Path_6" data-name="Path 6" d="M1013.186.109a.5.5,0,0,0-.705.078l-5.867,6.744-1.762,2.026a.569.569,0,0,1-.716.117l-1.457-.854-1.813-1.063a.506.506,0,0,0-.651.1.508.508,0,0,0-.04.658l2.5,3.505,1.506,2.109a.785.785,0,0,0,1.307-.044l1.122-1.817L1013.321.806a.5.5,0,0,0-.135-.7" transform="translate(-899.406 0)" fill="#25bbb7"/>
      <path id="Path_7" data-name="Path 7" d="M13.513,58.748V78.983H7.562V58.748h-1.3a2.7,2.7,0,0,0-1.89.49,2.214,2.214,0,0,0-.49,1.61L0,58.818A11.945,11.945,0,0,1,.14,57,3.892,3.892,0,0,1,.77,55.37a3.491,3.491,0,0,1,1.383-1.155,5.6,5.6,0,0,1,2.433-.438H21.075v4.971Z" transform="translate(0 -48.364)" fill="#272626"/>
    </g>
  </g>
</svg>
