<svg xmlns="http://www.w3.org/2000/svg" width="491" height="510.111" viewBox="0 0 491 510.111">
  <path id="Path_8" data-name="Path 8" d="M1482.936,4.018c-7.122-5.241-17.915-6.378-25.967,2.869L1240.948,255.194l-64.888,74.587a20.935,20.935,0,0,1-26.365,4.314l-53.639-31.462-66.771-39.152a18.641,18.641,0,0,0-23.977,3.617c-4.859,5.311-8.153,14.84-1.456,24.209l92.2,129.064,55.463,77.634a28.9,28.9,0,0,0,48.106-1.616l41.324-66.9L1487.906,29.672c6.454-10.444,2.15-20.41-4.97-25.654" transform="translate(-1000.07 0)" fill="#67b8c5" opacity="0.127"/>
</svg>
