<svg width="36" height="36" viewBox="0 0 36 36" fill="none" xmlns="http://www.w3.org/2000/svg">
<path d="M35.031 18.0009C34.931 23.6959 33.931 28.2789 31.059 31.0599C28.278 33.9269 23.695 34.9319 18 35.0319C12.305 34.9319 7.72197 33.9319 4.94097 31.0599C2.06997 28.2799 1.06997 23.6959 0.969971 18.0009C1.06997 12.3069 2.06997 7.72295 4.94197 4.94295C7.72197 2.07095 12.306 1.07095 18 0.970947C23.695 1.07095 28.278 2.07095 31.059 4.94295C33.927 7.72295 34.931 12.3069 35.031 18.0009Z" fill="#FF4155"/>
<path d="M31.059 4.94295C28.278 2.07095 23.695 1.07095 18 0.970947V35.0319C23.695 34.9319 28.278 33.9319 31.059 31.0599C33.926 28.2789 34.931 23.6959 35.031 18.0009C34.931 12.3059 33.931 7.72395 31.059 4.94295Z" fill="#EF0061"/>
<path fill-rule="evenodd" clip-rule="evenodd" d="M14.9579 11.209C14.959 10.4696 15.2532 9.76082 15.776 9.23801C16.2988 8.7152 17.0076 8.42102 17.7469 8.41996H18.2469C18.9863 8.42102 19.6951 8.7152 20.2179 9.23801C20.7407 9.76082 21.0349 10.4696 21.0359 11.209V17.951C21.0351 18.6903 20.7412 19.3992 20.2186 19.9222C19.696 20.4452 18.9873 20.7396 18.2479 20.741H17.7479C17.0086 20.7399 16.2998 20.4457 15.777 19.9229C15.2542 19.4001 14.96 18.6913 14.9589 17.952L14.9579 11.209ZM17.7479 22.502H18.2479C19.4545 22.5006 20.6113 22.0207 21.4645 21.1675C22.3177 20.3144 22.7976 19.1576 22.7989 17.951V11.209C22.7976 10.0024 22.3177 8.84557 21.4645 7.99238C20.6113 7.13919 19.4545 6.65928 18.2479 6.65796H17.7479C16.5413 6.65928 15.3845 7.13919 14.5313 7.99238C13.6782 8.84557 13.1982 10.0024 13.1969 11.209V17.951C13.198 19.1577 13.6778 20.3148 14.531 21.1682C15.3842 22.0216 16.5412 22.5006 17.7479 22.502ZM26.4919 17.702C26.4919 17.4683 26.3991 17.2442 26.2339 17.079C26.0687 16.9138 25.8446 16.821 25.6109 16.821C25.3773 16.821 25.1532 16.9138 24.988 17.079C24.8227 17.2442 24.7299 17.4683 24.7299 17.702C24.7299 19.4867 24.0209 21.1984 22.7589 22.4604C21.4969 23.7225 19.7852 24.4315 18.0004 24.4315C16.2156 24.4315 14.504 23.7225 13.2419 22.4604C11.9799 21.1984 11.2709 19.4867 11.2709 17.702C11.2709 17.4683 11.1781 17.2442 11.0129 17.079C10.8477 16.9138 10.6236 16.821 10.3899 16.821C10.1563 16.821 9.93217 16.9138 9.76695 17.079C9.60173 17.2442 9.50891 17.4683 9.50891 17.702C9.51071 19.801 10.2891 21.8251 11.6941 23.3844C13.0991 24.9438 15.0315 25.9282 17.1189 26.148V28.463C17.1189 28.6966 17.2117 28.9207 17.377 29.0859C17.5422 29.2511 17.7663 29.344 17.9999 29.344C18.2336 29.344 18.4577 29.2511 18.6229 29.0859C18.7881 28.9207 18.8809 28.6966 18.8809 28.463V26.141C20.9677 25.9213 22.8994 24.9375 24.3044 23.3789C25.7093 21.8204 26.4881 19.7973 26.4909 17.699L26.4919 17.702Z" fill="white"/>
</svg>
