<svg width="35" height="36" viewBox="0 0 35 36" fill="none" xmlns="http://www.w3.org/2000/svg">
<path d="M34.061 17.999C33.961 23.694 32.961 28.277 30.089 31.058C27.308 33.925 22.725 34.93 17.03 35.03C11.335 34.93 6.752 33.93 3.971 31.058C1.1 28.278 0.1 23.694 0 17.999C0.1 12.305 1.1 7.72099 3.972 4.94099C6.752 2.06899 11.336 1.06899 17.03 0.968994C22.725 1.06899 27.308 2.06899 30.089 4.94099C32.957 7.72099 33.961 12.305 34.061 17.999Z" fill="#FF4155"/>
<path d="M30.089 4.94099C27.308 2.06899 22.725 1.06899 17.03 0.968994V35.03C22.725 34.93 27.308 33.93 30.089 31.058C32.956 28.277 33.961 23.694 34.061 17.999C33.961 12.304 32.961 7.72199 30.089 4.94099Z" fill="#EF0061"/>
<path d="M23.0639 15.2331C22.6753 14.447 22.0707 13.788 21.3209 13.3331C21.2009 13.2471 21.0819 13.1531 20.9619 13.0601C20.116 12.4092 19.3539 11.6562 18.6929 10.8181C18.3669 10.3991 18.0279 9.98011 17.7019 9.58111C17.3759 9.18211 17.0629 8.79611 16.7569 8.40311C16.691 8.31839 16.6004 8.2563 16.4976 8.22544C16.3947 8.19458 16.2849 8.19648 16.1832 8.23089C16.0815 8.26529 15.9931 8.3305 15.9301 8.41744C15.8672 8.50439 15.8329 8.60878 15.8319 8.71611C15.7849 12.3021 15.8519 15.9341 15.9179 19.4461C15.9379 20.3771 15.9509 21.3291 15.9709 22.2871L15.9909 22.3071C15.4528 21.83 14.7672 21.5519 14.0488 21.5192C13.3303 21.4865 12.6223 21.7012 12.0431 22.1275C11.4638 22.5538 11.0483 23.1659 10.8658 23.8615C10.6833 24.5572 10.745 25.2944 11.0404 25.9502C11.3359 26.6059 11.8473 27.1404 12.4893 27.4646C13.1313 27.7888 13.8651 27.8829 14.5682 27.7314C15.2712 27.5799 15.9011 27.1918 16.3525 26.6319C16.804 26.0721 17.0498 25.3743 17.0489 24.6551C17.0489 24.5621 17.0419 24.4691 17.0359 24.3761V24.3961C17.0159 22.7331 16.9829 21.0501 16.9499 19.4201C16.8899 16.3861 16.8299 13.2661 16.8499 10.1661C16.8629 10.1861 16.8829 10.2061 16.8969 10.2261C17.2229 10.6261 17.5559 11.0381 17.8749 11.4431C18.5877 12.3509 19.4126 13.1647 20.3299 13.8651C20.4499 13.9581 20.5829 14.0511 20.7089 14.1511C21.299 14.5009 21.783 15.0045 22.1089 15.6081C22.2591 16.0265 22.3037 16.4756 22.2386 16.9154C22.1735 17.3552 22.0009 17.7721 21.7359 18.1291C21.4979 18.4863 21.1741 18.7782 20.7941 18.9781C20.4142 19.1779 19.9902 19.2793 19.5609 19.2731C19.4932 19.27 19.4256 19.2803 19.3619 19.3034C19.2981 19.3264 19.2396 19.3618 19.1895 19.4075C19.1395 19.4532 19.0989 19.5083 19.0702 19.5696C19.0414 19.631 19.025 19.6974 19.0219 19.7651C19.0189 19.8328 19.0291 19.9004 19.0522 19.9642C19.0753 20.0279 19.1106 20.0865 19.1563 20.1365C19.202 20.1866 19.2571 20.2271 19.3185 20.2559C19.3798 20.2846 19.4462 20.301 19.5139 20.3041C20.1153 20.3186 20.7106 20.1817 21.2452 19.9062C21.7799 19.6306 22.2368 19.2252 22.5739 18.7271C22.9438 18.2336 23.1829 17.6546 23.2689 17.0439C23.355 16.4331 23.2851 15.8106 23.0659 15.2341L23.0639 15.2331Z" fill="white"/>
<path d="M23.0639 15.232C22.6753 14.4459 22.0706 13.7869 21.3209 13.332C21.2009 13.246 21.0809 13.152 20.9619 13.059C20.116 12.4082 19.3539 11.6551 18.6929 10.817C18.3669 10.398 18.0279 9.97905 17.7019 9.58005C17.4819 9.30705 17.2559 9.02805 17.0299 8.74805V10.391C17.3159 10.737 17.6019 11.096 17.8819 11.449C18.5946 12.3568 19.4196 13.1706 20.3369 13.871C20.4569 13.964 20.5899 14.057 20.7159 14.157C21.306 14.5068 21.7899 15.0105 22.1159 15.614C22.2661 16.0325 22.3106 16.4815 22.2455 16.9213C22.1805 17.3611 22.0078 17.778 21.7429 18.135C21.5048 18.4923 21.181 18.7841 20.8011 18.984C20.4211 19.1838 19.9972 19.2853 19.5679 19.279C19.5002 19.276 19.4326 19.2862 19.3688 19.3093C19.3051 19.3324 19.2466 19.3677 19.1965 19.4134C19.1465 19.4591 19.1059 19.5142 19.0771 19.5756C19.0484 19.6369 19.032 19.7034 19.0289 19.771C19.0258 19.8387 19.0361 19.9064 19.0591 19.9701C19.0822 20.0338 19.1176 20.0924 19.1633 20.1424C19.209 20.1925 19.264 20.2331 19.3254 20.2618C19.3868 20.2906 19.4532 20.307 19.5209 20.3101C20.1222 20.3245 20.7175 20.1877 21.2522 19.9121C21.7869 19.6366 22.2437 19.2311 22.5809 18.733C22.9484 18.237 23.1855 17.6566 23.2704 17.045C23.3553 16.4335 23.2853 15.8105 23.0669 15.233L23.0639 15.232Z" fill="#FFEBEE"/>
</svg>
