<svg xmlns="http://www.w3.org/2000/svg" width="351.504" height="365.186" viewBox="0 0 351.504 365.186">
  <path id="Path_22" data-name="Path 22" d="M1345.751,2.876c-5.1-3.752-12.825-4.566-18.589,2.054L1172.513,182.692l-46.453,53.4a14.987,14.987,0,0,1-18.875,3.088l-38.4-22.523-47.8-28.029a13.345,13.345,0,0,0-17.165,2.59,13.4,13.4,0,0,0-1.042,17.331l66.009,92.4,39.706,55.577a20.688,20.688,0,0,0,34.439-1.157l29.583-47.9,176.8-286.224c4.62-7.477,1.539-14.611-3.558-18.366" transform="translate(-1000.07 0)" fill="#fff" opacity="0.157"/>
</svg>
